#tb 0: 1/25
0,          0,          0,        1,   518400, 0x7b2475e3
0,          1,          1,        1,   518400, 0xda786a87
0,          2,          2,        1,   518400, 0xb1dd8108
0,          3,          3,        1,   518400, 0x760ed65d
0,          4,          4,        1,   518400, 0x8632d20c
0,          5,          5,        1,   518400, 0xdd81e625
0,          6,          6,        1,   518400, 0x853f1c41
0,          7,          7,        1,   518400, 0x20191585
0,          8,          8,        1,   518400, 0x0367e357
0,          9,          9,        1,   518400, 0x60521167
0,         10,         10,        1,   518400, 0xa887d4cc
0,         11,         11,        1,   518400, 0x9a450f9e
0,         12,         12,        1,   518400, 0xe9620841
0,         13,         13,        1,   518400, 0xb482fb0e
0,         14,         14,        1,   518400, 0x7b79f670
0,         15,         15,        1,   518400, 0x9d37f1d1
0,         16,         16,        1,   518400, 0xe358d323
0,         17,         17,        1,   518400, 0x62ade59c
0,         18,         18,        1,   518400, 0xdd78da66
0,         19,         19,        1,   518400, 0xd97b867b
0,         20,         20,        1,   518400, 0x8a90cf8c
0,         21,         21,        1,   518400, 0x9d386610
0,         22,         22,        1,   518400, 0x2c590f46
0,         23,         23,        1,   518400, 0x92662861
0,         24,         24,        1,   518400, 0x6979f563
0,         25,         25,        1,   518400, 0xdd0fa1b2
0,         26,         26,        1,   518400, 0xccbf1c1c
0,         27,         27,        1,   518400, 0x7e358112
0,         28,         28,        1,   518400, 0xb7c0d89d
0,         29,         29,        1,   518400, 0xc6b03973
